<svg xmlns="http://www.w3.org/2000/svg" xmlns:xlink="http://www.w3.org/1999/xlink" width="500" zoomAndPan="magnify" viewBox="0 0 375 374.999991" height="500" preserveAspectRatio="xMidYMid meet" version="1.0"><defs><clipPath id="ceb639e9e5"><path d="M 25 184 L 351 184 L 351 349 L 25 349 Z M 25 184 " clip-rule="nonzero"/></clipPath><clipPath id="9b5fc2e572"><path d="M 92.933594 56.363281 L 384.851562 207.011719 L 267.21875 434.949219 L -24.699219 284.296875 Z M 92.933594 56.363281 " clip-rule="nonzero"/></clipPath><clipPath id="41c930ca03"><path d="M 92.933594 56.363281 L 384.851562 207.011719 L 267.21875 434.949219 L -24.699219 284.296875 Z M 92.933594 56.363281 " clip-rule="nonzero"/></clipPath><clipPath id="fae71b2bd2"><path d="M 40 184 L 336 184 L 336 335 L 40 335 Z M 40 184 " clip-rule="nonzero"/></clipPath><clipPath id="6d31f9edfa"><path d="M 92.933594 56.363281 L 384.851562 207.011719 L 267.21875 434.949219 L -24.699219 284.296875 Z M 92.933594 56.363281 " clip-rule="nonzero"/></clipPath><clipPath id="0651c07036"><path d="M 92.933594 56.363281 L 384.851562 207.011719 L 267.21875 434.949219 L -24.699219 284.296875 Z M 92.933594 56.363281 " clip-rule="nonzero"/></clipPath><clipPath id="9b259cd05f"><path d="M 55 190 L 170 190 L 170 270 L 55 270 Z M 55 190 " clip-rule="nonzero"/></clipPath><clipPath id="b9bfa4e52f"><path d="M 92.933594 56.363281 L 384.851562 207.011719 L 267.21875 434.949219 L -24.699219 284.296875 Z M 92.933594 56.363281 " clip-rule="nonzero"/></clipPath><clipPath id="26768fe900"><path d="M 92.933594 56.363281 L 384.851562 207.011719 L 267.21875 434.949219 L -24.699219 284.296875 Z M 92.933594 56.363281 " clip-rule="nonzero"/></clipPath><clipPath id="b871a83945"><path d="M 206 191 L 321 191 L 321 272 L 206 272 Z M 206 191 " clip-rule="nonzero"/></clipPath><clipPath id="d19103f513"><path d="M 92.933594 56.363281 L 384.851562 207.011719 L 267.21875 434.949219 L -24.699219 284.296875 Z M 92.933594 56.363281 " clip-rule="nonzero"/></clipPath><clipPath id="71d1e7df43"><path d="M 92.933594 56.363281 L 384.851562 207.011719 L 267.21875 434.949219 L -24.699219 284.296875 Z M 92.933594 56.363281 " clip-rule="nonzero"/></clipPath><clipPath id="16e3fbbb7a"><path d="M 103 204 L 184 204 L 184 319 L 103 319 Z M 103 204 " clip-rule="nonzero"/></clipPath><clipPath id="db4bc89ea1"><path d="M 92.933594 56.363281 L 384.851562 207.011719 L 267.21875 434.949219 L -24.699219 284.296875 Z M 92.933594 56.363281 " clip-rule="nonzero"/></clipPath><clipPath id="919c719008"><path d="M 92.933594 56.363281 L 384.851562 207.011719 L 267.21875 434.949219 L -24.699219 284.296875 Z M 92.933594 56.363281 " clip-rule="nonzero"/></clipPath><clipPath id="09591a770f"><path d="M 191 204 L 271 204 L 271 320 L 191 320 Z M 191 204 " clip-rule="nonzero"/></clipPath><clipPath id="964fc5ff43"><path d="M 92.933594 56.363281 L 384.851562 207.011719 L 267.21875 434.949219 L -24.699219 284.296875 Z M 92.933594 56.363281 " clip-rule="nonzero"/></clipPath><clipPath id="d935c481db"><path d="M 92.933594 56.363281 L 384.851562 207.011719 L 267.21875 434.949219 L -24.699219 284.296875 Z M 92.933594 56.363281 " clip-rule="nonzero"/></clipPath><clipPath id="91b82296b7"><path d="M 24 26 L 350 26 L 350 191 L 24 191 Z M 24 26 " clip-rule="nonzero"/></clipPath><clipPath id="214d8f7ec2"><path d="M 282.054688 318.632812 L -9.863281 167.980469 L 107.769531 -59.957031 L 399.6875 90.695312 Z M 282.054688 318.632812 " clip-rule="nonzero"/></clipPath><clipPath id="9260e735dc"><path d="M 282.054688 318.632812 L -9.863281 167.980469 L 107.769531 -59.957031 L 399.6875 90.695312 Z M 282.054688 318.632812 " clip-rule="nonzero"/></clipPath><clipPath id="04bdb572d3"><path d="M 39 40 L 335 40 L 335 191 L 39 191 Z M 39 40 " clip-rule="nonzero"/></clipPath><clipPath id="c67abeb331"><path d="M 282.054688 318.632812 L -9.863281 167.980469 L 107.769531 -59.957031 L 399.6875 90.695312 Z M 282.054688 318.632812 " clip-rule="nonzero"/></clipPath><clipPath id="1ddef36aa3"><path d="M 282.054688 318.632812 L -9.863281 167.980469 L 107.769531 -59.957031 L 399.6875 90.695312 Z M 282.054688 318.632812 " clip-rule="nonzero"/></clipPath><clipPath id="b6997f2831"><path d="M 205 105 L 320 105 L 320 185 L 205 185 Z M 205 105 " clip-rule="nonzero"/></clipPath><clipPath id="22a456ffb1"><path d="M 282.054688 318.632812 L -9.863281 167.980469 L 107.769531 -59.957031 L 399.6875 90.695312 Z M 282.054688 318.632812 " clip-rule="nonzero"/></clipPath><clipPath id="b7032863c3"><path d="M 282.054688 318.632812 L -9.863281 167.980469 L 107.769531 -59.957031 L 399.6875 90.695312 Z M 282.054688 318.632812 " clip-rule="nonzero"/></clipPath><clipPath id="cb08907a47"><path d="M 54 103 L 169 103 L 169 184 L 54 184 Z M 54 103 " clip-rule="nonzero"/></clipPath><clipPath id="e410c52fbe"><path d="M 282.054688 318.632812 L -9.863281 167.980469 L 107.769531 -59.957031 L 399.6875 90.695312 Z M 282.054688 318.632812 " clip-rule="nonzero"/></clipPath><clipPath id="a538833b02"><path d="M 282.054688 318.632812 L -9.863281 167.980469 L 107.769531 -59.957031 L 399.6875 90.695312 Z M 282.054688 318.632812 " clip-rule="nonzero"/></clipPath><clipPath id="2ed4b68e9f"><path d="M 191 56 L 272 56 L 272 171 L 191 171 Z M 191 56 " clip-rule="nonzero"/></clipPath><clipPath id="96354aee41"><path d="M 282.054688 318.632812 L -9.863281 167.980469 L 107.769531 -59.957031 L 399.6875 90.695312 Z M 282.054688 318.632812 " clip-rule="nonzero"/></clipPath><clipPath id="1106d9f131"><path d="M 282.054688 318.632812 L -9.863281 167.980469 L 107.769531 -59.957031 L 399.6875 90.695312 Z M 282.054688 318.632812 " clip-rule="nonzero"/></clipPath><clipPath id="cb8fbc2f8b"><path d="M 104 55 L 184 55 L 184 171 L 104 171 Z M 104 55 " clip-rule="nonzero"/></clipPath><clipPath id="8a6ada6a35"><path d="M 282.054688 318.632812 L -9.863281 167.980469 L 107.769531 -59.957031 L 399.6875 90.695312 Z M 282.054688 318.632812 " clip-rule="nonzero"/></clipPath><clipPath id="f674ac74c5"><path d="M 282.054688 318.632812 L -9.863281 167.980469 L 107.769531 -59.957031 L 399.6875 90.695312 Z M 282.054688 318.632812 " clip-rule="nonzero"/></clipPath><clipPath id="13399ec1d6"><path d="M 34.738281 34.738281 L 339.988281 34.738281 L 339.988281 339.988281 L 34.738281 339.988281 Z M 34.738281 34.738281 " clip-rule="nonzero"/></clipPath></defs><g clip-path="url(#ceb639e9e5)"><g clip-path="url(#9b5fc2e572)"><g clip-path="url(#41c930ca03)"><path fill="#ffe202" d="M 344.179688 187.832031 L 31.816406 184.753906 C 28.320312 184.71875 25.507812 187.601562 25.605469 191.09375 C 28.007812 277.972656 98.800781 348.101562 186.46875 348.960938 C 274.132812 349.828125 346.234375 281.109375 350.269531 194.292969 C 350.429688 190.800781 347.671875 187.863281 344.179688 187.832031 " fill-opacity="1" fill-rule="nonzero"/></g></g></g><g clip-path="url(#fae71b2bd2)"><g clip-path="url(#6d31f9edfa)"><g clip-path="url(#0651c07036)"><path fill="#ffffff" d="M 40.136719 184.835938 C 40.132812 184.929688 40.125 185.023438 40.128906 185.113281 C 39.359375 266.753906 104.941406 333.585938 186.605469 334.390625 C 268.269531 335.195312 335.09375 269.664062 335.863281 188.027344 C 335.863281 187.933594 335.859375 187.84375 335.863281 187.75 L 40.136719 184.835938 " fill-opacity="1" fill-rule="nonzero"/></g></g></g><g clip-path="url(#9b259cd05f)"><g clip-path="url(#b9bfa4e52f)"><g clip-path="url(#26768fe900)"><path fill="#ffe202" d="M 164.683594 190.953125 L 71.328125 190.03125 C 61.554688 189.9375 54.0625 198.671875 55.640625 208.3125 C 58.886719 228.164062 66.5 246.570312 77.472656 262.492188 C 83.042969 270.578125 94.519531 271.773438 101.527344 264.898438 L 168.15625 199.5625 C 171.351562 196.425781 169.160156 190.996094 164.683594 190.953125 " fill-opacity="1" fill-rule="nonzero"/></g></g></g><g clip-path="url(#b871a83945)"><g clip-path="url(#d19103f513)"><g clip-path="url(#71d1e7df43)"><path fill="#ffe202" d="M 207.585938 199.949219 L 272.96875 266.585938 C 279.851562 273.597656 291.347656 272.632812 297.066406 264.65625 C 308.335938 248.949219 316.296875 230.699219 319.917969 210.917969 C 321.675781 201.308594 314.347656 192.425781 304.574219 192.332031 L 211.21875 191.410156 C 206.742188 191.367188 204.449219 196.757812 207.585938 199.949219 " fill-opacity="1" fill-rule="nonzero"/></g></g></g><g clip-path="url(#16e3fbbb7a)"><g clip-path="url(#db4bc89ea1)"><g clip-path="url(#919c719008)"><path fill="#ffe202" d="M 174.617188 206.148438 L 107.992188 271.480469 C 100.980469 278.355469 101.949219 289.851562 109.929688 295.574219 C 125.648438 306.84375 143.90625 314.808594 163.699219 318.4375 C 173.3125 320.199219 182.195312 312.875 182.285156 303.109375 L 183.164062 209.785156 C 183.203125 205.308594 177.8125 203.015625 174.617188 206.148438 " fill-opacity="1" fill-rule="nonzero"/></g></g></g><g clip-path="url(#09591a770f)"><g clip-path="url(#964fc5ff43)"><g clip-path="url(#d935c481db)"><path fill="#ffe202" d="M 192.390625 209.875 L 191.511719 303.199219 C 191.417969 312.972656 200.160156 320.464844 209.804688 318.890625 C 229.660156 315.65625 248.066406 308.054688 263.988281 297.09375 C 272.078125 291.527344 273.265625 280.054688 266.386719 273.042969 L 201 206.40625 C 197.863281 203.214844 192.429688 205.398438 192.390625 209.875 " fill-opacity="1" fill-rule="nonzero"/></g></g></g><g clip-path="url(#91b82296b7)"><g clip-path="url(#214d8f7ec2)"><g clip-path="url(#9260e735dc)"><path fill="#ffe202" d="M 30.8125 187.164062 L 343.175781 190.242188 C 346.667969 190.273438 349.480469 187.390625 349.386719 183.902344 C 346.984375 97.019531 276.191406 26.894531 188.523438 26.03125 C 100.855469 25.167969 28.757812 93.886719 24.722656 180.703125 C 24.5625 184.191406 27.316406 187.128906 30.8125 187.164062 " fill-opacity="1" fill-rule="nonzero"/></g></g></g><g clip-path="url(#04bdb572d3)"><g clip-path="url(#c67abeb331)"><g clip-path="url(#1ddef36aa3)"><path fill="#ffffff" d="M 334.855469 190.160156 C 334.859375 190.066406 334.867188 189.972656 334.863281 189.878906 C 335.632812 108.242188 270.050781 41.410156 188.386719 40.605469 C 106.722656 39.800781 39.898438 105.328125 39.128906 186.96875 C 39.125 187.0625 39.128906 187.148438 39.128906 187.246094 L 334.855469 190.160156 " fill-opacity="1" fill-rule="nonzero"/></g></g></g><g clip-path="url(#b6997f2831)"><g clip-path="url(#22a456ffb1)"><g clip-path="url(#b7032863c3)"><path fill="#ffe202" d="M 210.304688 184.042969 L 303.660156 184.960938 C 313.4375 185.058594 320.929688 176.320312 319.351562 166.679688 C 316.105469 146.828125 308.492188 128.425781 297.519531 112.503906 C 291.949219 104.414062 280.472656 103.222656 273.460938 110.097656 L 206.835938 175.429688 C 203.640625 178.566406 205.828125 183.996094 210.304688 184.042969 " fill-opacity="1" fill-rule="nonzero"/></g></g></g><g clip-path="url(#cb08907a47)"><g clip-path="url(#e410c52fbe)"><g clip-path="url(#a538833b02)"><path fill="#ffe202" d="M 167.40625 175.042969 L 102.019531 108.40625 C 95.140625 101.398438 83.644531 102.359375 77.925781 110.335938 C 66.65625 126.042969 58.691406 144.292969 55.074219 164.074219 C 53.316406 173.6875 60.644531 182.566406 70.417969 182.664062 L 163.773438 183.582031 C 168.25 183.625 170.539062 178.234375 167.40625 175.042969 " fill-opacity="1" fill-rule="nonzero"/></g></g></g><g clip-path="url(#2ed4b68e9f)"><g clip-path="url(#96354aee41)"><g clip-path="url(#1106d9f131)"><path fill="#ffe202" d="M 200.371094 168.847656 L 267 103.511719 C 274.007812 96.636719 273.039062 85.144531 265.058594 79.417969 C 249.34375 68.148438 231.085938 60.183594 211.292969 56.554688 C 201.675781 54.792969 192.796875 62.117188 192.707031 71.886719 L 191.828125 165.210938 C 191.785156 169.6875 197.179688 171.976562 200.371094 168.847656 " fill-opacity="1" fill-rule="nonzero"/></g></g></g><g clip-path="url(#cb8fbc2f8b)"><g clip-path="url(#8a6ada6a35)"><g clip-path="url(#f674ac74c5)"><path fill="#ffe202" d="M 182.601562 165.121094 L 183.480469 71.792969 C 183.574219 62.023438 174.828125 54.527344 165.1875 56.101562 C 145.328125 59.339844 126.921875 66.941406 111 77.902344 C 102.914062 83.46875 101.726562 94.941406 108.605469 101.949219 L 173.992188 168.585938 C 177.128906 171.78125 182.558594 169.59375 182.601562 165.121094 " fill-opacity="1" fill-rule="nonzero"/></g></g></g><path fill="#ffffff" d="M 244.578125 185.816406 L 154.035156 133.546875 C 151.734375 132.21875 148.90625 132.21875 146.609375 133.546875 C 144.3125 134.871094 142.898438 137.320312 142.898438 139.972656 L 142.898438 244.527344 C 142.898438 247.175781 144.3125 249.628906 146.609375 250.953125 C 147.757812 251.625 149.039062 251.953125 150.324219 251.953125 C 151.605469 251.953125 152.886719 251.621094 154.035156 250.953125 L 244.578125 198.683594 C 246.878906 197.355469 248.289062 194.90625 248.289062 192.253906 C 248.289062 189.597656 246.875 187.144531 244.578125 185.816406 Z M 244.578125 185.816406 " fill-opacity="1" fill-rule="nonzero"/><g clip-path="url(#13399ec1d6)"><path fill="#ffffff" d="M 187.230469 339.820312 C 103.097656 339.820312 34.648438 271.371094 34.648438 187.234375 C 34.648438 103.101562 103.097656 34.652344 187.230469 34.652344 C 271.367188 34.652344 339.820312 103.101562 339.820312 187.234375 C 339.820312 271.371094 271.367188 339.820312 187.230469 339.820312 Z M 187.230469 49.699219 C 111.394531 49.699219 49.699219 111.398438 49.699219 187.234375 C 49.699219 263.074219 111.394531 324.773438 187.230469 324.773438 C 263.070312 324.773438 324.773438 263.070312 324.773438 187.234375 C 324.773438 111.398438 263.070312 49.699219 187.230469 49.699219 Z M 187.230469 49.699219 " fill-opacity="1" fill-rule="nonzero"/></g></svg>