<svg fill="#FFFFFF" xmlns="http://www.w3.org/2000/svg"  viewBox="0 0 16 16" width="16px" height="16px"><path d="M7.264 8.175c.009.001.011.001.019.003.144.019.286.045.394.094.101.044.159.1.213.2.082.152.087.364.013.525-.055.12-.176.22-.287.273C7.501 9.326 7.388 9.352 7.258 9.367 7.031 9.392 6.786 9.345 6.581 9.246 6.46 9.187 6.312 9.085 6.238 8.955 6.183 8.859 6.185 8.734 6.251 8.643c.106-.145.333-.177.505-.171.131.005.365.045.489.089C7.28 8.574 7.406 8.623 7.428 8.646c.015.016.025.039.019.06C7.419 8.793 7.208 8.838 7.148 8.847 6.985 8.872 6.901 8.81 6.716 8.737 6.672 8.72 6.61 8.7 6.564 8.696 6.48 8.688 6.379 8.711 6.363 8.803 6.355 8.85 6.41 8.894 6.453 8.913c.099.043.18.058.277.059.289.005.613-.043.849-.21.032-.023.064-.057.065-.099.001-.086-.149-.139-.149-.139-.16-.065-.454-.098-.605-.11C6.731 8.4 6.481 8.38 6.421 8.371 6.359 8.362 6.292 8.349 6.238 8.325S6.132 8.247 6.116 8.187C6.089 8.078 6.124 7.945 6.184 7.859c.158-.227.527-.313.803-.347.267-.033.699-.033.961.107C7.989 7.641 8.01 7.661 8.001 7.704 7.984 7.785 7.923 7.837 7.849 7.861 7.771 7.885 7.61 7.895 7.54 7.899 7.224 7.917 6.842 7.908 6.541 7.99 6.518 7.997 6.476 8.008 6.464 8.023 6.416 8.074 6.551 8.089 6.58 8.094 6.589 8.096 6.59 8.097 6.6 8.097L7.264 8.175M5.382 6.764c0 0 .051-.077.095-.136.079-.107.221-.255.327-.346.033-.028.071-.059.071-.059s-.06.006-.094.013C5.7 6.252 5.581 6.331 5.522 6.382 5.424 6.466 5.316 6.603 5.364 6.724 5.371 6.742 5.382 6.764 5.382 6.764M5.928 6.91c.155-.011.3-.055.435-.13C6.496 6.706 6.69 6.562 6.67 6.392 6.664 6.336 6.628 6.295 6.583 6.276c-.059-.026-.09-.022-.165 0-.055.016-.08.026-.132.056C6.134 6.42 5.919 6.609 5.802 6.76 5.774 6.795 5.747 6.835 5.726 6.862 5.712 6.879 5.702 6.894 5.703 6.899 5.707 6.916 5.867 6.914 5.928 6.91M5.533 7.2C5.517 7.217 5.5 7.258 5.482 7.288 5.473 7.304 5.456 7.324 5.444 7.332 5.404 7.361 5.37 7.363 5.331 7.328 5.276 7.28 5.245 7.205 5.242 7.132 5.241 7.1 5.246 7.066 5.24 7.039 5.23 6.994 5.185 6.948 5.161 6.904c-.029-.05-.052-.139-.055-.196C5.096 6.529 5.19 6.365 5.313 6.235c.123-.131.284-.24.459-.314.165-.07.408-.117.59-.054.059.02.141.071.183.123C6.554 6.001 6.562 6.013 6.57 6.019c.008.005.03.007.046.01.058.01.141.054.175.083C6.86 6.172 6.898 6.228 6.915 6.31c.035.165-.06.346-.169.456C6.561 6.955 6.378 7.088 6.141 7.181 6.037 7.222 5.875 7.26 5.757 7.249 5.72 7.246 5.682 7.236 5.647 7.234 5.629 7.232 5.562 7.215 5.555 7.21 5.546 7.204 5.535 7.198 5.533 7.2M5.744 7.566c.007.001.019.005.028.008C5.856 7.605 5.89 7.683 5.91 7.767c.047.196.067.63.075.8C5.992 8.695 5.994 8.82 6 8.946c.005.107.013.249-.009.349C5.983 9.331 5.959 9.373 5.924 9.394 5.885 9.419 5.795 9.421 5.745 9.411 5.624 9.386 5.584 9.308 5.566 9.188 5.525 8.9 5.545 8.337 5.569 8.099c.008-.079.037-.33.079-.435C5.663 7.628 5.692 7.556 5.744 7.566M2.044 8.044c0 0-.181.013-.305.027C1.58 8.088 1.282 8.139 1.111 8.201 1.059 8.219.955 8.263.945 8.316.936 8.371.97 8.414 1.008 8.459 1.03 8.485 1.154 8.604 1.189 8.633c.146.122.442.31.66.401.075.031.199.075.199.075s-.009-.353-.007-.7C2.04 8.225 2.044 8.044 2.044 8.044M5.364 8.184c.01.095-.014.274-.018.297-.008.055-.049.18-.055.195C5.258 8.753 5.225 8.815 5.19 8.877 5.131 8.984 4.989 9.153 4.906 9.226 4.595 9.495 4.112 9.649 3.698 9.699 3.417 9.733 3.095 9.728 2.797 9.673 2.694 9.654 2.542 9.619 2.542 9.619S2.543 9.68 2.537 9.723C2.534 9.742 2.52 9.794 2.512 9.811 2.491 9.856 2.455 9.879 2.403 9.888 2.34 9.899 2.274 9.903 2.217 9.879c-.095-.04-.129-.128-.145-.23C2.059 9.568 2.045 9.426 2.045 9.426s-.071-.033-.13-.063C1.734 9.274 1.562 9.166 1.411 9.054 1.369 9.023 1.19 8.873 1.15 8.835 1.039 8.73.939 8.625.863 8.49.804 8.387.787 8.294.832 8.183c.062-.155.284-.272.437-.339C1.381 7.795 1.728 7.681 1.872 7.66 1.94 7.65 2.046 7.631 2.053 7.627 2.056 7.625 2.058 7.623 2.06 7.621c.003-.005.009-.158.007-.214-.002-.055.04-.418.054-.495C2.129 6.871 2.16 6.711 2.192 6.669 2.213 6.641 2.25 6.643 2.28 6.662c.165.103.216.46.228.641C2.515 7.414 2.519 7.58 2.519 7.58s.19-.005.307-.002c.113.003.239.021.356.039.151.024.445.088.613.174C3.934 7.862 4.064 7.98 4.106 8.106 4.145 8.222 4.139 8.301 4.08 8.405 4.013 8.523 3.887 8.61 3.758 8.617 3.72 8.619 3.576 8.6 3.531 8.565 3.514 8.552 3.515 8.527 3.527 8.51c.005-.007.072-.042.112-.063.02-.011.037-.023.052-.037C3.724 8.381 3.754 8.349 3.75 8.311 3.746 8.263 3.695 8.233 3.645 8.213c-.23-.091-.69-.167-.912-.181-.086-.005-.21-.009-.21-.009l.026 1.226c0 0 .102.019.183.033.046.007.242.025.294.026.396.011.839-.025 1.202-.197.161-.075.307-.168.418-.295C4.791 8.649 4.868 8.42 4.848 8.18 4.826 7.919 4.642 7.608 4.495 7.418c-.389-.499-1.055-.91-1.64-1.151C2.257 6.021 1.665 5.88 1.031 5.856.867 5.85.51 5.858.33 5.908.304 5.916.278 5.924.255 5.93.236 5.934.206 5.947.198 5.954.193 5.957.189 5.962.189 5.962S.2 5.968.211 5.973C.23 5.982.31 5.986.352 5.994.389 6.001.428 6.02.443 6.048.458 6.074.46 6.094.442 6.116c-.041.05-.195.041-.263.031-.07-.012-.158-.033-.174-.095C-.013 5.98.021 5.91.058 5.844c.075-.131.181-.199.337-.241C.617 5.542.896 5.5 1.106 5.492 1.58 5.474 2.029 5.557 2.487 5.697c.264.078.608.211.86.333.181.087.465.247.625.352.051.033.345.25.391.289.095.078.221.191.311.281.175.174.393.44.499.651.027.05.047.1.079.159.011.02.06.14.068.175.008.035.02.085.022.087C5.343 8.041 5.365 8.144 5.364 8.184M11.321 7.913c-.222.051-.805.079-.805.079l-.073.231c0 0 .291-.025.504-.003 0 0 .069-.008.077.078.003.08-.007.166-.007.166s-.005.052-.078.065c-.08.013-.629.035-.629.035l-.089.301c0 0-.033.069.041.049.069-.019.643-.126.719-.111.08.02.169.127.143.225-.031.121-.604.487-.953.461 0 0-.183.012-.339-.236C9.687 9.017 9.886 8.57 9.886 8.57S9.795 8.361 9.861 8.291c0 0 .039-.036.154-.044l.141-.291c0 0-.16.011-.255-.107C9.812 7.737 9.804 7.686 9.872 7.655c.073-.036.74-.157 1.199-.142 0 0 .159-.015.298.261C11.368 7.774 11.434 7.886 11.321 7.913M9.594 9.031C9.535 9.17 9.38 9.317 9.187 9.225 8.996 9.133 8.693 8.512 8.693 8.512S8.578 8.281 8.556 8.287c0 0-.025-.045-.04.208C8.5 8.747 8.519 9.238 8.419 9.316 8.324 9.393 8.208 9.363 8.148 9.272 8.093 9.182 8.071 8.97 8.1 8.597c.035-.373.121-.771.233-.894C8.444 7.581 8.532 7.67 8.567 7.702c0 0 .148.134.392.528l.043.073c0 0 .222.372.245.371 0 0 .018.017.034.005.023-.007.014-.126.014-.126S9.249 8.147 9.046 7.461c0 0-.031-.085-.01-.166s.102-.043.102-.043S9.451 7.41 9.604 7.92C9.756 8.431 9.654 8.892 9.594 9.031M12.97 8.726c-.143.249-.546.771-1.081.647-.177.429-.325.863-.411 1.512 0 0-.019.126-.123.083-.104-.037-.275-.209-.31-.448-.037-.314.103-.845.388-1.453-.083-.135-.14-.329-.091-.605 0 0 .072-.511.585-.973 0 0 .061-.053.097-.037.039.017.021.183-.01.264-.033.081-.261.477-.261.477S11.61 8.46 11.65 8.672c.269-.415.882-1.25 1.262-.987.127.091.187.29.187.504C13.099 8.376 13.054 8.576 12.97 8.726M12.859 8.069c0 0-.021-.165-.182.017-.139.153-.389.44-.589.83.211-.024.415-.138.476-.197C12.663 8.631 12.897 8.39 12.859 8.069M15.92 8.032h-.981c-.019-.333-.06-.659-.123-.993-.007-.035-.037-.06-.072-.06h-.226c-.02 0-.039.009-.051.024-.013.016-.018.035-.014.055.064.324.105.643.125.974h-.944c-.044 0-.08.035-.08.079v.204c0 .044.036.08.08.08h.958c.001.051.001.095.001.138 0 .294-.013.537-.043.81-.003.021.005.042.019.058.014.015.034.025.055.025h.21c.041 0 .075-.031.079-.071.029-.275.041-.521.041-.821 0-.042-.001-.087-.001-.138h.968c.044 0 .08-.036.08-.08V8.112C16 8.068 15.964 8.032 15.92 8.032M2.795 5.297c-.014.021-.018.046-.01.069.009.024.027.042.05.05l.176.059C3.022 5.478 3.032 5.48 3.042 5.48c.033 0 .063-.016.081-.043C3.701 4.591 4.481 3.886 5.38 3.399 6.309 2.896 7.361 2.63 8.424 2.63c1.283 0 2.521.379 3.58 1.095 1.033.699 1.836 1.673 2.321 2.817.015.034.048.057.085.057h.21c.024 0 .047-.012.061-.033.014-.02.017-.046.007-.069-.5-1.231-1.346-2.281-2.446-3.035-1.126-.772-2.447-1.18-3.818-1.18C6.156 2.283 4.051 3.41 2.795 5.297M12.176 11.396c.322 0 .593.12.765.37h.008v-.311h.414v2.206h-.414v-.343h-.008c-.155.263-.434.398-.749.398-.645 0-1.171-.486-1.171-1.123C11.021 11.89 11.527 11.396 12.176 11.396L12.176 11.396zM5.591 11.396c.609 0 1.183.478 1.175 1.179-.008.601-.521 1.165-1.248 1.142-.617-.019-1.141-.549-1.133-1.165C4.392 11.886 4.919 11.396 5.591 11.396zM8.929 11.396c.367 0 .665.255.677.645H9.192c-.02-.159-.111-.267-.283-.267-.159 0-.259.108-.259.235 0 .187.191.243.41.311.311.096.597.283.597.693 0 .426-.311.705-.741.705-.398 0-.781-.271-.781-.781h.414c.02.267.155.402.374.402.191 0 .319-.123.319-.303 0-.151-.115-.251-.374-.334-.542-.171-.633-.406-.633-.657C8.236 11.655 8.566 11.396 8.929 11.396zM2.044 10.715c.229 0 .414.185.414.414v.562h.008c.131-.195.343-.295.617-.295.526 0 .92.334.92.94v1.326H3.59v-1.199c0-.474-.183-.689-.55-.689-.363 0-.582.263-.582.693v1.195H2.044L2.044 10.715zM7.65 10.715v.741h.363v.378H7.65v1.828c-.229 0-.414-.185-.414-.414v-1.414H7.065v-.378h.171v-.741H7.65L7.65 10.715zM10.527 10.715v.741h.363v.378h-.362v1.828c-.229 0-.414-.185-.414-.414v-1.414H9.942v-.378h.171v-.741L10.527 10.715 10.527 10.715zM14.853 11.396v.426c-.358.012-.542.231-.542.602v.824c0 .229-.185.414-.414.414v-2.206h.386v.199h.008C14.391 11.507 14.562 11.412 14.853 11.396L14.853 11.396zM5.571 11.774c-.475 0-.877.461-.749.974.087.348.404.6.763.591.424-.012.766-.35.766-.788C6.352 12.121 6.005 11.774 5.571 11.774L5.571 11.774zM12.188 11.774c-.437 0-.79.395-.75.861.034.385.348.696.734.703.438.009.784-.353.784-.776C12.957 12.133 12.646 11.774 12.188 11.774z"/></svg>