<svg fill="#FFFFFF" xmlns="http://www.w3.org/2000/svg"  viewBox="0 0 50 50" width="50px" height="50px"><path d="M 33.816406 16.835938 L 33.816406 32 L 30.175781 32 L 30.175781 16.835938 L 33.816406 16.835938 M 5.640625 16.835938 L 5.640625 21.777344 C 5.640625 21.777344 5.746094 21.734375 5.960938 21.671875 L 6.878906 21.5625 L 9.242188 21.5625 C 9.296875 21.5625 9.351563 21.5625 9.402344 21.5625 C 10.109375 21.5625 10.757813 21.691406 11.351563 21.949219 C 11.96875 22.203125 12.457031 22.609375 12.839844 23.160156 C 13.203125 23.738281 13.394531 24.480469 13.394531 25.398438 L 13.394531 32 L 9.753906 32 L 9.753906 25.867188 C 9.730469 25.609375 9.644531 25.355469 9.453125 25.183594 C 9.261719 25.015625 9.027344 24.90625 8.773438 24.90625 L 6.644531 24.90625 C 6.34375 24.90625 6.132813 25.015625 5.941406 25.183594 C 5.746094 25.355469 5.664063 25.609375 5.640625 25.867188 L 5.640625 32 L 2 32 L 2 16.835938 L 5.640625 16.835938 M 48 21.566406 L 48 27.996094 C 48 28.761719 47.851563 29.464844 47.554688 30.0625 C 47.277344 30.660156 46.851563 31.128906 46.316406 31.46875 C 45.765625 31.785156 45.105469 31.957031 44.339844 31.957031 L 44.339844 32 L 40.78125 32 C 39.949219 32 39.226563 31.828125 38.589844 31.53125 C 37.96875 31.234375 37.503906 30.785156 37.140625 30.1875 C 36.777344 29.59375 36.628906 28.847656 36.605469 27.996094 L 36.605469 21.566406 L 40.269531 21.566406 L 40.269531 27.675781 C 40.269531 27.953125 40.375 28.1875 40.546875 28.378906 C 40.71875 28.550781 40.953125 28.636719 41.25 28.65625 L 43.378906 28.65625 C 43.65625 28.636719 43.890625 28.550781 44.0625 28.378906 C 44.230469 28.1875 44.339844 27.953125 44.339844 27.675781 L 44.339844 21.566406 L 48 21.566406 M 27.40625 21.566406 L 27.40625 27.996094 C 27.386719 28.761719 27.234375 29.464844 26.960938 30.0625 C 26.660156 30.660156 26.234375 31.128906 25.703125 31.46875 C 25.167969 31.785156 24.511719 31.957031 23.742188 31.957031 L 23.742188 32 L 20.164063 32 C 19.3125 32 18.609375 31.828125 17.972656 31.53125 C 17.355469 31.234375 16.863281 30.785156 16.523438 30.1875 C 16.183594 29.59375 16.011719 28.847656 16.011719 27.996094 L 16.011719 21.566406 L 19.65625 21.566406 L 19.65625 27.675781 C 19.675781 27.953125 19.761719 28.1875 19.953125 28.378906 C 20.121094 28.550781 20.359375 28.636719 20.632813 28.65625 L 22.765625 28.65625 C 23.039063 28.636719 23.273438 28.550781 23.46875 28.378906 C 23.636719 28.1875 23.722656 27.953125 23.742188 27.675781 L 23.742188 21.566406 L 27.40625 21.566406 M 33.816406 14.835938 L 30.175781 14.835938 C 29.070313 14.835938 28.175781 15.730469 28.175781 16.835938 L 28.175781 19.71875 C 27.9375 19.617188 27.679688 19.566406 27.40625 19.566406 L 23.742188 19.566406 C 22.636719 19.566406 21.742188 20.460938 21.742188 21.566406 L 21.742188 26.65625 L 21.652344 26.65625 L 21.652344 21.566406 C 21.652344 20.460938 20.757813 19.566406 19.652344 19.566406 L 16.011719 19.566406 C 14.949219 19.566406 14.082031 20.390625 14.015625 21.433594 C 13.484375 20.851563 12.847656 20.40625 12.113281 20.101563 C 11.300781 19.746094 10.378906 19.5625 9.402344 19.5625 C 9.339844 19.5625 9.277344 19.5625 9.214844 19.5625 L 7.640625 19.5625 L 7.640625 16.835938 C 7.640625 15.730469 6.746094 14.835938 5.640625 14.835938 L 2 14.835938 C 0.894531 14.835938 0 15.730469 0 16.835938 L 0 32 C 0 33.105469 0.894531 34 2 34 L 5.640625 34 C 6.746094 34 7.640625 33.105469 7.640625 32 L 7.640625 26.90625 L 7.753906 26.90625 L 7.753906 32 C 7.753906 33.105469 8.648438 34 9.753906 34 L 13.394531 34 C 14.484375 34 15.375 33.125 15.394531 32.035156 C 15.859375 32.574219 16.433594 33.007813 17.105469 33.332031 C 18.074219 33.785156 19.066406 34 20.164063 34 L 23.742188 34 C 23.910156 34 24.070313 33.980469 24.226563 33.941406 C 25.15625 33.875 25.996094 33.621094 26.730469 33.183594 C 26.746094 33.171875 26.765625 33.160156 26.78125 33.152344 C 27.324219 32.804688 27.789063 32.378906 28.175781 31.875 L 28.175781 32 C 28.175781 33.105469 29.070313 34 30.175781 34 L 33.816406 34 C 34.921875 34 35.816406 33.105469 35.816406 32 L 35.816406 31.789063 C 36.332031 32.453125 36.96875 32.972656 37.71875 33.332031 C 38.675781 33.777344 39.699219 34 40.78125 34 L 44.339844 34 C 44.503906 34 44.667969 33.980469 44.824219 33.941406 C 45.738281 33.878906 46.574219 33.628906 47.316406 33.199219 C 47.34375 33.183594 47.371094 33.167969 47.398438 33.152344 C 48.265625 32.59375 48.925781 31.847656 49.355469 30.929688 C 49.78125 30.0625 50 29.074219 50 27.996094 L 50 21.5625 C 50 20.460938 49.105469 19.5625 48 19.5625 L 44.335938 19.5625 C 43.230469 19.5625 42.335938 20.460938 42.335938 21.5625 L 42.335938 26.65625 L 42.269531 26.65625 L 42.269531 21.5625 C 42.269531 20.460938 41.375 19.5625 40.269531 19.5625 L 36.605469 19.5625 C 36.324219 19.5625 36.058594 19.621094 35.816406 19.726563 L 35.816406 16.835938 C 35.816406 15.730469 34.921875 14.835938 33.816406 14.835938 Z"/></svg>