<svg fill="#FFFFFF" xmlns="http://www.w3.org/2000/svg"  viewBox="0 0 50 50" width="50px" height="50px"><path d="M 13 4 C 8.037 4 4 8.037 4 13 L 4 37 C 4 41.963 8.037 46 13 46 L 37 46 C 41.963 46 46 41.963 46 37 L 46 13 C 46 8.037 41.963 4 37 4 L 13 4 z M 22.943359 11.783203 C 23.053359 11.776203 23.164578 11.796078 23.267578 11.830078 C 23.638578 11.954078 23.830875 12.278266 23.796875 12.697266 C 23.769875 13.054266 23.500578 13.343437 23.142578 13.398438 C 22.991578 13.425437 22.834594 13.425438 22.683594 13.398438 C 22.291594 13.322437 22.002297 13.034062 22.029297 12.539062 C 22.070297 12.051063 22.393359 11.783203 22.943359 11.783203 z M 14.804688 14.085938 C 14.9845 14.086484 15.168422 14.107187 15.357422 14.148438 C 16.017422 14.299437 16.449469 14.731266 16.730469 15.322266 C 16.874469 15.645266 16.970047 15.995516 16.998047 16.353516 C 17.046047 16.930516 17.032656 17.501453 16.847656 18.064453 C 16.716656 18.504453 16.469813 18.902891 16.132812 19.212891 C 15.672812 19.624891 15.122578 19.775844 14.517578 19.714844 C 14.084578 19.673844 13.666266 19.508234 13.322266 19.240234 C 13.274266 19.281234 13.294922 19.336766 13.294922 19.384766 L 13.294922 21.34375 C 13.294922 21.76975 13.294328 21.769531 12.861328 21.769531 C 12.614328 21.769531 12.366141 21.762531 12.119141 21.769531 C 11.961141 21.776531 11.824375 21.747516 11.734375 21.603516 C 11.727375 19.205516 11.728516 16.793672 11.728516 14.388672 C 11.840516 14.263672 11.984578 14.243 12.142578 14.25 C 12.348578 14.257 12.561578 14.25 12.767578 14.25 C 12.953578 14.25 13.021172 14.312375 13.076172 14.484375 C 13.097172 14.553375 13.109859 14.620453 13.130859 14.689453 C 13.130859 14.696453 13.145203 14.703938 13.158203 14.710938 C 13.213203 14.683938 13.261734 14.648422 13.302734 14.607422 C 13.766234 14.262422 14.26525 14.084297 14.804688 14.085938 z M 28.261719 14.087891 C 28.433469 14.087891 28.605344 14.106125 28.777344 14.140625 C 29.100344 14.209625 29.389219 14.400781 29.574219 14.675781 C 29.588219 14.696781 29.601234 14.710609 29.615234 14.724609 C 29.608234 14.731609 29.616047 14.730141 29.623047 14.744141 C 29.795047 14.641141 29.972203 14.531547 30.158203 14.435547 C 30.639203 14.188547 31.17575 14.064797 31.71875 14.091797 C 32.11075 14.112797 32.467187 14.223719 32.742188 14.511719 C 33.003188 14.779719 33.100906 15.109797 33.128906 15.466797 C 33.135906 15.542797 33.134766 15.616219 33.134766 15.699219 L 33.134766 19.259766 C 33.134766 19.568766 33.094156 19.609375 32.785156 19.609375 L 31.947266 19.609375 C 31.892266 19.609375 31.83625 19.608563 31.78125 19.601562 C 31.69925 19.594562 31.631187 19.525359 31.617188 19.443359 C 31.603188 19.367359 31.603516 19.292797 31.603516 19.216797 L 31.603516 16.035156 C 31.610516 15.904156 31.5965 15.78025 31.5625 15.65625 C 31.5075 15.44325 31.315703 15.293297 31.095703 15.279297 C 30.690703 15.251297 30.283109 15.333859 29.912109 15.505859 C 29.857109 15.519859 29.823078 15.575859 29.830078 15.630859 L 29.830078 19.244141 C 29.830078 19.313141 29.830406 19.375359 29.816406 19.443359 C 29.816406 19.539359 29.740531 19.607422 29.644531 19.607422 C 29.541531 19.614422 29.438125 19.615234 29.328125 19.615234 L 28.601562 19.615234 C 28.347562 19.615234 28.292969 19.552828 28.292969 19.298828 L 28.292969 16.048828 C 28.292969 15.931828 28.284812 15.807406 28.257812 15.691406 C 28.209813 15.457406 28.011344 15.292297 27.777344 15.279297 C 27.365344 15.251297 26.946219 15.334672 26.574219 15.513672 C 26.519219 15.527672 26.485047 15.589531 26.498047 15.644531 L 26.498047 19.308594 C 26.498047 19.562594 26.443453 19.617187 26.189453 19.617188 L 25.267578 19.617188 C 25.027578 19.617188 24.966797 19.547453 24.966797 19.314453 L 24.966797 14.546875 L 24.964844 14.546875 C 24.964844 14.491875 24.970375 14.435859 24.984375 14.380859 C 25.012375 14.298859 25.095734 14.25 25.177734 14.25 L 26.035156 14.25 C 26.159156 14.25 26.235344 14.325406 26.277344 14.441406 C 26.311344 14.537406 26.331234 14.627469 26.365234 14.730469 C 26.434234 14.730469 26.475437 14.682297 26.523438 14.654297 C 26.901438 14.420297 27.299094 14.222625 27.746094 14.140625 C 27.918094 14.106125 28.089969 14.087891 28.261719 14.087891 z M 36.988281 14.136719 C 37.217656 14.159094 37.442609 14.206797 37.662109 14.279297 C 38.562109 14.601297 38.933359 15.473844 38.693359 16.339844 C 38.597359 16.683844 38.3715 16.930375 38.0625 17.109375 C 37.7945 17.253375 37.505125 17.343766 37.203125 17.384766 C 36.688125 17.466766 36.158578 17.460281 35.642578 17.363281 C 35.580578 17.349281 35.512172 17.341938 35.451172 17.335938 C 35.417172 17.953937 35.794906 18.455266 36.378906 18.572266 C 36.804906 18.648266 37.245875 18.648594 37.671875 18.558594 C 37.870875 18.517594 38.062719 18.476734 38.261719 18.427734 C 38.460719 18.378734 38.544922 18.442437 38.544922 18.648438 C 38.544922 18.820438 38.537922 18.99125 38.544922 19.15625 C 38.551922 19.33525 38.468547 19.432141 38.310547 19.494141 C 38.049547 19.597141 37.773047 19.666844 37.498047 19.714844 C 36.976047 19.796844 36.448781 19.816219 35.925781 19.699219 C 35.011781 19.507219 34.406016 18.964781 34.166016 18.050781 C 33.980016 17.335781 33.952688 16.61425 34.179688 15.90625 C 34.502688 14.86825 35.211875 14.272438 36.296875 14.148438 C 36.526875 14.117438 36.758906 14.114344 36.988281 14.136719 z M 21.226562 14.197266 C 21.405562 14.204266 21.466469 14.259641 21.480469 14.431641 C 21.494469 14.665641 21.488281 14.904672 21.488281 15.138672 C 21.495281 15.234672 21.488609 15.325875 21.474609 15.421875 C 21.447609 15.545875 21.398391 15.593422 21.275391 15.607422 C 21.179391 15.614422 21.088188 15.606609 20.992188 15.599609 C 20.532187 15.558609 20.085344 15.648969 19.652344 15.792969 C 19.556344 15.826969 19.556641 15.894703 19.556641 15.970703 L 19.556641 19.269531 C 19.556641 19.331531 19.557781 19.385266 19.550781 19.447266 C 19.543781 19.536266 19.473766 19.605469 19.384766 19.605469 C 19.336766 19.612469 19.282375 19.613281 19.234375 19.613281 L 18.339844 19.613281 C 18.291844 19.613281 18.237453 19.612469 18.189453 19.605469 C 18.100453 19.598469 18.030437 19.523594 18.023438 19.433594 C 18.016437 19.378594 18.017578 19.324531 18.017578 19.269531 L 18.017578 14.59375 C 18.017578 14.27775 18.051188 14.244141 18.367188 14.244141 L 19.027344 14.244141 C 19.206344 14.244141 19.287937 14.306516 19.335938 14.478516 C 19.383937 14.650516 19.424797 14.822812 19.466797 15.007812 C 19.514797 14.993813 19.555984 14.966781 19.583984 14.925781 C 19.707984 14.801781 19.838562 14.684219 19.976562 14.574219 C 20.333562 14.299219 20.779563 14.163266 21.226562 14.197266 z M 22.380859 14.242188 C 22.737859 14.235188 23.094172 14.235188 23.451172 14.242188 C 23.609172 14.242188 23.657875 14.291219 23.671875 14.449219 C 23.678875 14.511219 23.679688 14.566906 23.679688 14.628906 L 23.679688 19.203125 C 23.679688 19.279125 23.671062 19.355641 23.664062 19.431641 C 23.657062 19.520641 23.589 19.582844 23.5 19.589844 C 23.459 19.596844 23.423812 19.595703 23.382812 19.595703 L 22.427734 19.595703 C 22.393734 19.595703 22.366031 19.596844 22.332031 19.589844 C 22.236031 19.582844 22.153484 19.507156 22.146484 19.410156 C 22.139484 19.355156 22.138672 19.299141 22.138672 19.244141 C 22.145672 18.481141 22.146484 17.699016 22.146484 16.916016 L 22.146484 14.476562 C 22.153484 14.311563 22.215859 14.249187 22.380859 14.242188 z M 36.679688 15.191406 C 36.239688 15.164406 35.807562 15.335891 35.601562 15.837891 C 35.539563 15.988891 35.491703 16.1475 35.470703 16.3125 C 35.456703 16.4225 35.455594 16.421547 35.558594 16.435547 C 35.826594 16.476547 36.101141 16.498047 36.369141 16.498047 C 36.520141 16.512047 36.671406 16.498844 36.816406 16.464844 C 37.056406 16.416844 37.257844 16.312453 37.339844 16.064453 C 37.373844 15.947453 37.379375 15.824031 37.359375 15.707031 C 37.339375 15.514031 37.223922 15.349438 37.044922 15.273438 C 36.927922 15.225437 36.803688 15.197406 36.679688 15.191406 z M 14.300781 15.25 C 13.999 15.246859 13.709281 15.326688 13.425781 15.460938 C 13.336781 15.494938 13.280109 15.577828 13.287109 15.673828 C 13.294109 16.085828 13.287109 16.498156 13.287109 16.910156 L 13.287109 18.154297 C 13.282109 18.236297 13.33125 18.310703 13.40625 18.345703 C 13.71525 18.510703 14.058203 18.586406 14.408203 18.566406 C 14.642203 18.566406 14.863016 18.477172 15.041016 18.326172 C 15.199016 18.182172 15.309422 17.988391 15.357422 17.775391 C 15.481422 17.356391 15.481453 16.916563 15.439453 16.476562 C 15.425453 16.236563 15.362766 15.995391 15.259766 15.775391 C 15.142766 15.507391 14.896422 15.32225 14.607422 15.28125 C 14.504422 15.26075 14.401375 15.251047 14.300781 15.25 z M 18.539062 21.929688 C 18.686062 21.914687 18.834609 21.944906 18.974609 22.003906 C 19.262609 22.114906 19.460609 22.379453 19.474609 22.689453 C 19.533609 23.360453 19.083328 23.700547 18.486328 23.685547 C 18.405328 23.685547 18.325141 23.67025 18.244141 23.65625 C 17.787141 23.54525 17.551703 23.191594 17.595703 22.683594 C 17.632703 22.276594 17.949766 21.9735 18.384766 21.9375 C 18.436766 21.9305 18.487063 21.921688 18.539062 21.929688 z M 24.703125 21.980469 L 25.728516 21.980469 C 25.949516 21.980469 26.009578 22.031766 26.017578 22.259766 L 26.017578 30.03125 C 26.010578 30.24525 25.951141 30.310547 25.744141 30.310547 C 25.486141 30.317547 25.228891 30.310547 24.962891 30.310547 L 24.785156 30.310547 C 24.660156 30.310547 24.556344 30.229328 24.527344 30.111328 C 24.512344 30.022328 24.482313 29.934516 24.445312 29.853516 C 24.379313 29.868516 24.350828 29.919219 24.298828 29.949219 C 23.612828 30.458219 22.859641 30.583031 22.056641 30.332031 C 21.466641 30.155031 21.06225 29.743078 20.78125 29.205078 C 20.53825 28.718078 20.412109 28.179766 20.412109 27.634766 C 20.397109 27.052766 20.448922 26.476641 20.669922 25.931641 C 20.898922 25.363641 21.252313 24.884141 21.820312 24.619141 C 22.631312 24.243141 23.434172 24.325391 24.201172 24.775391 C 24.253172 24.804391 24.291422 24.848469 24.357422 24.855469 C 24.394422 24.803469 24.371094 24.753172 24.371094 24.701172 L 24.371094 22.3125 C 24.371094 22.0325 24.423125 21.980469 24.703125 21.980469 z M 35.96875 24.384766 C 36.20375 24.393141 36.437922 24.424969 36.669922 24.480469 C 37.664922 24.731469 38.275828 25.372703 38.548828 26.345703 C 38.585828 26.478703 38.615859 26.617813 38.630859 26.757812 C 38.630859 26.764813 38.636719 26.765437 38.636719 26.773438 L 38.621094 26.773438 L 38.621094 26.847656 L 38.628906 26.847656 C 38.621906 26.847656 38.621094 26.853516 38.621094 26.853516 L 38.621094 26.912109 C 38.606094 26.949109 38.621391 26.993438 38.650391 27.023438 L 38.650391 26.994141 C 38.650391 27.001141 38.658203 27.001766 38.658203 27.009766 L 38.658203 27.857422 L 38.660156 27.857422 C 38.653156 27.864422 38.646484 27.879719 38.646484 27.886719 L 38.646484 27.871094 C 38.602484 27.900094 38.608234 27.937422 38.615234 27.982422 L 38.615234 28.085938 L 38.623047 28.085938 C 38.520047 29.103938 37.878078 30.274984 36.330078 30.458984 C 35.865078 30.524984 35.393359 30.495766 34.943359 30.384766 C 34.095359 30.170766 33.505938 29.655891 33.210938 28.837891 C 32.871938 27.937891 32.864125 26.949781 33.203125 26.050781 C 33.549125 25.106781 34.266719 24.574734 35.261719 24.427734 C 35.497719 24.390734 35.73375 24.376391 35.96875 24.384766 z M 29.851562 24.449219 C 30.220562 24.434219 30.595219 24.479844 30.949219 24.589844 C 31.583219 24.803844 32.003203 25.215906 32.158203 25.878906 C 32.217203 26.143906 32.218016 26.424453 32.166016 26.689453 C 32.085016 27.117453 31.812875 27.479875 31.421875 27.671875 C 31.038875 27.877875 30.609641 27.959281 30.181641 27.988281 C 29.687641 28.025281 29.194031 27.987437 28.707031 27.898438 C 28.678031 27.883437 28.640516 27.884766 28.603516 27.884766 C 28.617516 28.042766 28.648547 28.188937 28.685547 28.335938 C 28.818547 28.836938 29.157203 29.124703 29.658203 29.220703 C 30.159203 29.308703 30.675922 29.287922 31.169922 29.169922 C 31.331922 29.132922 31.486437 29.094781 31.648438 29.050781 C 31.862437 28.998781 31.949031 29.073109 31.957031 29.287109 L 31.957031 29.818359 C 31.957031 30.047359 31.906359 30.120172 31.693359 30.201172 C 31.184359 30.393172 30.645422 30.496906 30.107422 30.503906 C 29.738422 30.518906 29.362953 30.481578 29.001953 30.392578 C 28.160953 30.163578 27.572453 29.655453 27.314453 28.814453 C 27.063453 27.996453 27.026156 27.16175 27.285156 26.34375 C 27.668156 25.10475 28.612563 24.479219 29.851562 24.449219 z M 11.417969 24.568359 C 11.837969 24.561359 12.257922 24.568359 12.669922 24.568359 C 12.846922 24.568359 12.928656 24.686797 12.972656 24.841797 C 13.053656 25.121797 13.133656 25.409453 13.222656 25.689453 C 13.524656 26.714453 13.820047 27.746484 14.123047 28.771484 C 14.116047 28.778484 14.123672 28.779297 14.138672 28.779297 C 14.182672 28.632297 14.227484 28.49075 14.271484 28.34375 C 14.610484 27.20075 14.949063 26.066828 15.289062 24.923828 L 15.332031 24.789062 C 15.369031 24.656063 15.495906 24.576172 15.628906 24.576172 L 16.748047 24.576172 C 17.028047 24.576172 17.088188 24.657828 16.992188 24.923828 L 16.550781 26.095703 C 16.056781 27.378703 15.562359 28.668172 15.068359 29.951172 C 15.053359 29.995172 15.030625 30.039984 15.015625 30.083984 C 14.963625 30.238984 14.809484 30.341172 14.646484 30.326172 C 14.322484 30.319172 13.997828 30.319172 13.673828 30.326172 C 13.444828 30.333172 13.313422 30.231391 13.232422 30.025391 C 13.048422 29.538391 12.855875 29.044594 12.671875 28.558594 C 12.229875 27.400594 11.780891 26.243125 11.337891 25.078125 C 11.291891 24.989125 11.262234 24.885062 11.240234 24.789062 C 11.218234 24.642063 11.269969 24.568359 11.417969 24.568359 z M 18.001953 24.576172 L 19.0625 24.576172 C 19.2905 24.576172 19.357422 24.642094 19.357422 24.871094 L 19.357422 27.451172 L 19.357422 30.105469 C 19.342422 30.252469 19.276906 30.319172 19.128906 30.326172 C 18.730906 30.333172 18.339406 30.333172 17.941406 30.326172 C 17.794406 30.326172 17.727891 30.253281 17.712891 30.113281 C 17.705891 30.069281 17.705078 30.016656 17.705078 29.972656 L 17.705078 24.871094 C 17.712078 24.642094 17.772953 24.576172 18.001953 24.576172 z M 29.701172 25.582031 C 29.402109 25.609359 29.139547 25.735109 28.935547 26.005859 C 28.758547 26.241859 28.692625 26.522547 28.640625 26.810547 C 28.625625 26.876547 28.656656 26.905109 28.722656 26.912109 C 29.016656 26.957109 29.310281 26.979328 29.613281 26.986328 C 29.768281 26.993328 29.923312 26.979219 30.070312 26.949219 C 30.343312 26.897219 30.586156 26.787187 30.660156 26.492188 C 30.756156 26.094188 30.632234 25.682562 30.115234 25.601562 C 30.078234 25.601562 30.048719 25.585938 30.011719 25.585938 C 29.904719 25.574938 29.800859 25.572922 29.701172 25.582031 z M 23.117188 25.646484 C 22.793187 25.668484 22.49875 25.852625 22.34375 26.140625 C 22.27775 26.258625 22.233266 26.376953 22.197266 26.501953 C 22.086266 26.951953 22.049422 27.422719 22.107422 27.886719 C 22.129422 28.144719 22.196453 28.394859 22.314453 28.630859 C 22.469453 28.932859 22.764516 29.140734 23.103516 29.177734 C 23.501516 29.236734 23.907719 29.154078 24.261719 28.955078 C 24.342719 28.918078 24.393906 28.838 24.378906 28.75 L 24.378906 27.408203 C 24.378906 26.958203 24.372719 26.515594 24.386719 26.058594 C 24.393719 25.962594 24.342906 25.875703 24.253906 25.845703 C 23.899906 25.683703 23.507187 25.609484 23.117188 25.646484 z M 35.675781 25.681641 C 35.365781 25.703641 35.085828 25.873672 34.923828 26.138672 C 34.835828 26.285672 34.761609 26.456953 34.724609 26.626953 C 34.621609 27.054953 34.627062 27.488828 34.664062 27.923828 C 34.686062 28.174828 34.753281 28.425297 34.863281 28.654297 C 34.988281 28.942297 35.246641 29.148031 35.556641 29.207031 C 35.696641 29.236031 35.836563 29.236656 35.976562 29.222656 C 36.256563 29.200656 36.515734 29.052219 36.677734 28.824219 C 36.773734 28.691219 36.838812 28.551484 36.882812 28.396484 C 36.971812 28.094484 37.008328 27.776172 36.986328 27.451172 C 36.993328 27.318172 36.985516 27.187687 36.978516 27.054688 C 36.964516 26.766687 36.890625 26.478703 36.765625 26.220703 C 36.632625 25.947703 36.390703 25.755266 36.095703 25.697266 C 35.955703 25.668266 35.815781 25.667641 35.675781 25.681641 z M 35.677734 32.658203 C 36.072734 32.670203 36.46075 32.694875 36.84375 32.796875 C 36.95175 32.826875 37.053297 32.862156 37.154297 32.910156 C 37.292297 32.964156 37.382391 33.095281 37.400391 33.238281 C 37.424391 33.406281 37.429969 33.579906 37.417969 33.753906 C 37.339969 34.778906 37.023094 35.766484 36.496094 36.646484 C 36.304094 36.963484 36.071734 37.250953 35.802734 37.501953 C 35.748734 37.555953 35.681375 37.597094 35.609375 37.621094 C 35.495375 37.651094 35.423969 37.592516 35.417969 37.478516 C 35.423969 37.418516 35.436937 37.358828 35.460938 37.298828 C 35.670938 36.735828 35.873156 36.178656 36.035156 35.597656 C 36.131156 35.280656 36.196281 34.957906 36.238281 34.628906 C 36.250281 34.508906 36.256141 34.389531 36.244141 34.269531 C 36.238141 34.066531 36.107156 33.892031 35.910156 33.832031 C 35.724156 33.772031 35.533938 33.736609 35.335938 33.724609 C 34.784937 33.700609 34.234453 33.724875 33.689453 33.796875 L 32.964844 33.886719 C 32.886844 33.892719 32.815437 33.886453 32.773438 33.814453 C 32.731437 33.742453 32.749016 33.670609 32.791016 33.599609 C 32.839016 33.533609 32.898703 33.473641 32.970703 33.431641 C 33.413703 33.114641 33.9105 32.922875 34.4375 32.796875 C 34.8445 32.712875 35.258734 32.670203 35.677734 32.658203 z M 12.746094 32.964844 C 12.787969 32.954969 12.831547 32.958562 12.873047 32.976562 C 12.927047 33.000563 12.981297 33.024687 13.029297 33.054688 C 15.178297 34.383688 17.525328 35.353734 19.986328 35.927734 C 20.812328 36.119734 21.644422 36.268953 22.482422 36.376953 C 23.685422 36.526953 24.899375 36.578109 26.109375 36.537109 C 26.761375 36.519109 27.408687 36.460953 28.054688 36.376953 C 29.562687 36.184953 31.053094 35.842281 32.496094 35.363281 C 33.256094 35.112281 33.999609 34.825234 34.724609 34.490234 C 34.832609 34.430234 34.962031 34.411406 35.082031 34.441406 C 35.280031 34.490406 35.401516 34.695578 35.353516 34.892578 C 35.347516 34.916578 35.334266 34.946703 35.322266 34.970703 C 35.274266 35.060703 35.209 35.138266 35.125 35.197266 C 34.437 35.736266 33.694156 36.208516 32.910156 36.603516 C 31.431156 37.351516 29.850656 37.884453 28.222656 38.189453 C 27.282656 38.357453 26.337719 38.458141 25.386719 38.494141 C 25.147719 38.488141 24.906969 38.488141 24.667969 38.494141 C 24.338969 38.476141 24.009687 38.465406 23.679688 38.441406 C 22.805688 38.375406 21.937891 38.243875 21.087891 38.046875 C 18.148891 37.364875 15.569359 35.993 13.318359 34 C 13.109359 33.814 12.911031 33.623641 12.707031 33.431641 C 12.659031 33.389641 12.61775 33.329531 12.59375 33.269531 C 12.55775 33.185531 12.574766 33.094297 12.634766 33.029297 C 12.664766 32.996797 12.704219 32.974719 12.746094 32.964844 z"/></svg>